<svg width="12" height="13" viewBox="0 0 12 13" fill="none" xmlns="http://www.w3.org/2000/svg">
<path d="M2.49967 4.375C2.42555 4.37507 2.35311 4.39709 2.2915 4.4383C2.2299 4.47951 2.18188 4.53806 2.15353 4.60654C2.12517 4.67502 2.11775 4.75037 2.13219 4.82307C2.14663 4.89577 2.18229 4.96256 2.23467 5.015L5.73467 8.515C5.80498 8.58523 5.90029 8.62467 5.99967 8.62467C6.09905 8.62467 6.19436 8.58523 6.26467 8.515L9.76467 5.015C9.81705 4.96256 9.85271 4.89577 9.86715 4.82307C9.88159 4.75037 9.87417 4.67502 9.84581 4.60654C9.81746 4.53806 9.76944 4.47951 9.70784 4.4383C9.64623 4.39709 9.57379 4.37507 9.49967 4.375H2.49967Z" fill="white"/>
</svg>
