<svg width="20" height="22" viewBox="0 0 20 22" fill="none" xmlns="http://www.w3.org/2000/svg">
<path d="M13.6667 9.16658V5.49992C13.6667 4.52746 13.2804 3.59483 12.5927 2.90719C11.9051 2.21956 10.9725 1.83325 10 1.83325C9.02754 1.83325 8.09491 2.21956 7.40728 2.90719C6.71964 3.59483 6.33333 4.52746 6.33333 5.49992V9.16658M1.75 6.41659V16.4999C1.75 17.4724 2.13631 18.405 2.82394 19.0926C3.51158 19.7803 4.44421 20.1666 5.41667 20.1666H14.5833C15.5558 20.1666 16.4884 19.7803 17.1761 19.0926C17.8637 18.405 18.25 17.4724 18.25 16.4999V6.41659H1.75Z" stroke="white" stroke-width="2" stroke-linecap="round" stroke-linejoin="round"/>
</svg>
