<svg width="16" height="16" viewBox="0 0 16 16" fill="none" xmlns="http://www.w3.org/2000/svg">
<g clip-path="url(#clip0_78_608)">
<mask id="mask0_78_608" style="mask-type:luminance" maskUnits="userSpaceOnUse" x="0" y="0" width="16" height="16">
<path d="M11 0H5C2.23858 0 0 2.23858 0 5V11C0 13.7614 2.23858 16 5 16H11C13.7614 16 16 13.7614 16 11V5C16 2.23858 13.7614 0 11 0Z" fill="white"/>
</mask>
<g mask="url(#mask0_78_608)">
<path d="M11 0H5C2.23858 0 0 2.23858 0 5V11C0 13.7614 2.23858 16 5 16H11C13.7614 16 16 13.7614 16 11V5C16 2.23858 13.7614 0 11 0Z" fill="#EEEEEE"/>
<path fill-rule="evenodd" clip-rule="evenodd" d="M8.07898 8.65898L10.4403 11.0203C10.519 11.0964 10.6245 11.1384 10.7339 11.1375C10.8434 11.1365 10.9481 11.0926 11.0254 11.0152C11.1028 10.9378 11.1467 10.8331 11.1477 10.7237C11.1486 10.6143 11.1066 10.5088 11.0305 10.4301L8.66921 8.06875L11.0305 5.70741C11.1066 5.62868 11.1486 5.52324 11.1477 5.41379C11.1467 5.30435 11.1028 5.19965 11.0254 5.12226C10.9481 5.04487 10.8434 5.00097 10.7339 5.00002C10.6245 4.99906 10.519 5.04114 10.4403 5.11717L8.07898 7.47852L5.71766 5.11717C5.63858 5.04302 5.53375 5.00254 5.42535 5.0043C5.31696 5.00606 5.2135 5.04992 5.13687 5.12661C5.06024 5.20329 5.01645 5.30678 5.01477 5.41518C5.01308 5.52358 5.05364 5.62838 5.12785 5.70741L7.48875 8.06875L5.12743 10.4301C5.08756 10.4686 5.05577 10.5147 5.03389 10.5656C5.01201 10.6165 5.0005 10.6713 5.00002 10.7267C4.99953 10.7821 5.0101 10.8371 5.03108 10.8884C5.05207 10.9397 5.08307 10.9863 5.12226 11.0255C5.16145 11.0647 5.20806 11.0957 5.25935 11.1167C5.31065 11.1377 5.36562 11.1482 5.42104 11.1477C5.47647 11.1473 5.53124 11.1357 5.58217 11.1139C5.63309 11.092 5.67915 11.0602 5.71766 11.0203L8.07898 8.65898Z" fill="#777777"/>
</g>
<path d="M11 0.25H5C2.37665 0.25 0.25 2.37665 0.25 5V11C0.25 13.6234 2.37665 15.75 5 15.75H11C13.6234 15.75 15.75 13.6234 15.75 11V5C15.75 2.37665 13.6234 0.25 11 0.25Z" stroke="#777777" stroke-width="0.5"/>
</g>
<defs>
<clipPath id="clip0_78_608">
<rect width="16" height="16" fill="white"/>
</clipPath>
</defs>
</svg>
