<svg width="22" height="23" viewBox="0 0 22 23" fill="none" xmlns="http://www.w3.org/2000/svg">
<path d="M10.9997 2.33325C15.303 2.33325 18.7914 5.82163 18.7914 10.1249C18.7943 11.968 18.1412 13.752 16.9489 15.1574L16.9479 15.1579L16.9406 15.1666H16.958L12.3339 20.0749C12.1625 20.2567 11.9557 20.4017 11.7263 20.5007C11.4969 20.5997 11.2496 20.6508 10.9997 20.6508C10.7498 20.6508 10.5025 20.5997 10.2731 20.5007C10.0436 20.4017 9.83688 20.2567 9.66548 20.0749L5.04136 15.1666H5.05877L5.05052 15.1574L5.04136 15.146C4.74501 14.7949 4.48028 14.4184 4.25027 14.0208C3.56496 12.8369 3.20536 11.4928 3.20802 10.1249C3.20802 5.82163 6.6964 2.33325 10.9997 2.33325ZM10.9997 7.37492C10.2703 7.37492 9.57087 7.66465 9.05515 8.18037C8.53942 8.6961 8.24969 9.39557 8.24969 10.1249C8.24969 10.8543 8.53942 11.5537 9.05515 12.0695C9.57087 12.5852 10.2703 12.8749 10.9997 12.8749C11.729 12.8749 12.4285 12.5852 12.9442 12.0695C13.46 11.5537 13.7497 10.8543 13.7497 10.1249C13.7497 9.39557 13.46 8.6961 12.9442 8.18037C12.4285 7.66465 11.729 7.37492 10.9997 7.37492Z" fill="#FFF1C5"/>
</svg>
