<svg width="60" height="60" viewBox="0 0 60 60" fill="none" xmlns="http://www.w3.org/2000/svg">
<g filter="url(#filter0_i_418_5057)">
<path d="M30 5C41.7363 5 51.25 14.5138 51.25 26.25C51.2582 31.2766 49.4769 36.142 46.225 39.975L46.2225 39.9762L46.2025 40H46.25L33.6388 53.3862C33.1714 53.8823 32.6074 54.2775 31.9817 54.5476C31.356 54.8177 30.6816 54.957 30 54.957C29.3185 54.957 28.6441 54.8177 28.0184 54.5476C27.3926 54.2775 26.8287 53.8823 26.3613 53.3862L13.75 40H13.7975L13.775 39.975L13.75 39.9437C12.9418 38.9864 12.2198 37.9595 11.5925 36.875C9.72351 33.6464 8.74277 29.9805 8.75004 26.25C8.75004 14.5138 18.2638 5 30 5ZM30 18.75C28.0109 18.75 26.1033 19.5402 24.6967 20.9467C23.2902 22.3532 22.5 24.2609 22.5 26.25C22.5 28.2391 23.2902 30.1468 24.6967 31.5533C26.1033 32.9598 28.0109 33.75 30 33.75C31.9892 33.75 33.8968 32.9598 35.3033 31.5533C36.7099 30.1468 37.5 28.2391 37.5 26.25C37.5 24.2609 36.7099 22.3532 35.3033 20.9467C33.8968 19.5402 31.9892 18.75 30 18.75Z" fill="black"/>
</g>
<defs>
<filter id="filter0_i_418_5057" x="8.75" y="5" width="43.5" height="50.957" filterUnits="userSpaceOnUse" color-interpolation-filters="sRGB">
<feFlood flood-opacity="0" result="BackgroundImageFix"/>
<feBlend mode="normal" in="SourceGraphic" in2="BackgroundImageFix" result="shape"/>
<feColorMatrix in="SourceAlpha" type="matrix" values="0 0 0 0 0 0 0 0 0 0 0 0 0 0 0 0 0 0 127 0" result="hardAlpha"/>
<feOffset dx="1" dy="1"/>
<feGaussianBlur stdDeviation="2"/>
<feComposite in2="hardAlpha" operator="arithmetic" k2="-1" k3="1"/>
<feColorMatrix type="matrix" values="0 0 0 0 0.85098 0 0 0 0 0.85098 0 0 0 0 0.85098 0 0 0 1 0"/>
<feBlend mode="normal" in2="shape" result="effect1_innerShadow_418_5057"/>
</filter>
</defs>
</svg>
