<svg width="18" height="20" viewBox="0 0 18 20" fill="none" xmlns="http://www.w3.org/2000/svg">
<path d="M9.00002 0C13.6945 0 17.5 3.8055 17.5 8.5C17.5033 10.5106 16.7908 12.4568 15.49 13.99L15.489 13.9905L15.481 14H15.5L10.4555 19.3545C10.2685 19.5529 10.043 19.711 9.79268 19.819C9.54238 19.9271 9.27264 19.9828 9.00002 19.9828C8.72739 19.9828 8.45765 19.9271 8.20735 19.819C7.95706 19.711 7.73149 19.5529 7.54452 19.3545L2.50002 14H2.51902L2.51002 13.99L2.50002 13.9775C2.17673 13.5946 1.88793 13.1838 1.63702 12.75C0.889404 11.4586 0.497107 9.99221 0.500016 8.5C0.500016 3.8055 4.30552 0 9.00002 0ZM9.00002 5.5C8.20437 5.5 7.4413 5.81607 6.87869 6.37868C6.31609 6.94129 6.00002 7.70435 6.00002 8.5C6.00002 9.29565 6.31609 10.0587 6.87869 10.6213C7.4413 11.1839 8.20437 11.5 9.00002 11.5C9.79566 11.5 10.5587 11.1839 11.1213 10.6213C11.6839 10.0587 12 9.29565 12 8.5C12 7.70435 11.6839 6.94129 11.1213 6.37868C10.5587 5.81607 9.79566 5.5 9.00002 5.5Z" fill="#A82D2F"/>
</svg>
