<svg width="95" height="40" viewBox="0 0 95 40" fill="none" xmlns="http://www.w3.org/2000/svg">
<path d="M46.3994 31.6523C46.3994 32.3164 46.585 33.2637 47.2295 33.9082C47.8643 33.2783 48.04 32.3457 48.04 31.6523V31.418H47.4346V30.666H49.9346V31.418H48.9287V31.6523C48.9189 32.5508 49.2998 33.6641 50.3057 34.1719L49.8174 34.8457C49.1387 34.4893 48.7236 33.8789 48.4893 33.1953C48.2891 33.8936 47.9082 34.5479 47.2295 34.9336C46.5557 34.5479 46.1748 33.8936 45.9697 33.2051C45.7354 33.8838 45.3203 34.499 44.6514 34.8457L44.1533 34.1719C45.1494 33.6445 45.54 32.5312 45.54 31.6523V31.418H44.4756V30.666H47.0244V31.418H46.3994V31.6523ZM51.6338 30.0703V35.1973H50.7061V30.0703H51.6338ZM51.6338 35.6465V38.7227H45.7158V35.6465H51.6338ZM46.6338 36.3789V37.9707H50.7256V36.3789H46.6338Z" fill="#A82D2F"/>
<path d="M47.3496 21.35L45.8996 20.03C40.7496 15.36 37.3496 12.27 37.3496 8.5C37.3496 5.41 39.7696 3 42.8496 3C44.5896 3 46.2596 3.81 47.3496 5.08C48.4396 3.81 50.1096 3 51.8496 3C54.9296 3 57.3496 5.41 57.3496 8.5C57.3496 12.27 53.9496 15.36 48.7996 20.03L47.3496 21.35Z" fill="#A82D2F"/>
</svg>
