<svg width="94" height="40" viewBox="0 0 94 40" fill="none" xmlns="http://www.w3.org/2000/svg">
<path d="M50.5811 36.1934V38.8008H44.3799V36.1934H50.5811ZM45.6104 37.1211V37.873H49.3604V37.1211H45.6104ZM51.1279 30.6465V31.584H43.833V30.6465H46.8701V29.9336H48.1201V30.6465H51.1279ZM47.4951 31.8086C49.4189 31.8184 50.4834 32.2383 50.4834 33.0781C50.4834 33.8203 49.6484 34.2451 48.1201 34.3281V34.7676H51.5479V35.7441H43.4424V34.7676H46.8701V34.3281C45.3467 34.2451 44.4971 33.8203 44.5068 33.0781C44.4971 32.2383 45.5811 31.8184 47.4951 31.8086ZM47.4951 32.6484C46.3721 32.6484 45.835 32.7656 45.835 33.0781C45.835 33.3809 46.3721 33.5078 47.4951 33.5078C48.6279 33.5078 49.1455 33.3809 49.1455 33.0781C49.1455 32.7656 48.6279 32.6484 47.4951 32.6484Z" fill="#A82D2F"/>
<path d="M39 21V9L47 3L55 9V21H49V14H45V21H39Z" fill="#A82D2F"/>
</svg>
