<svg width="21" height="22" viewBox="0 0 21 22" fill="none" xmlns="http://www.w3.org/2000/svg">
<path d="M10.4998 19.2499C10.2198 19.2499 9.93976 19.1399 9.71576 18.9337C8.23176 17.5037 3.30376 12.6224 2.02976 10.2162C1.14776 8.56617 1.20376 6.50367 2.15576 4.94992C3.00976 3.56117 4.49376 2.76367 6.21576 2.76367C8.39976 2.76367 9.75776 3.87742 10.4998 5.00492C11.2418 3.87742 12.5998 2.76367 14.7838 2.76367C16.5058 2.76367 17.9898 3.56117 18.8438 4.94992C19.7958 6.50367 19.8518 8.56617 18.9698 10.2162C17.6818 12.6362 12.7678 17.5037 11.2838 18.9337C11.0598 19.1537 10.7798 19.2499 10.4998 19.2499ZM6.21576 4.12492C4.98376 4.12492 3.96176 4.66117 3.35976 5.65117C2.64576 6.79242 2.61776 8.33242 3.27576 9.56992C4.19976 11.3024 7.57376 14.9049 10.5138 17.7649C13.4398 14.9049 16.8278 11.3162 17.7518 9.56992C18.4098 8.33242 18.3678 6.79242 17.6678 5.65117C17.0658 4.66117 16.0438 4.12492 14.8118 4.12492C11.8438 4.12492 11.2418 6.73742 11.2138 6.84742H9.84176C9.81376 6.73742 9.18376 4.12492 6.24376 4.12492H6.21576Z" fill="#A82D2F"/>
<path d="M6.21576 4.12492C4.98376 4.12492 3.96176 4.66117 3.35976 5.65117C2.64576 6.79242 2.61776 8.33242 3.27576 9.56992C4.19976 11.3024 7.57376 14.9049 10.5138 17.7649C13.4398 14.9049 16.8278 11.3162 17.7518 9.56992C18.4098 8.33242 18.3678 6.79242 17.6678 5.65117C17.0658 4.66117 16.0438 4.12492 14.8118 4.12492C11.8438 4.12492 11.2418 6.73742 11.2138 6.84742H9.84176C9.81376 6.73742 9.18376 4.12492 6.24376 4.12492H6.21576Z" fill="#A82D2F"/>
</svg>
