<svg width="19" height="18" viewBox="0 0 19 18" fill="none" xmlns="http://www.w3.org/2000/svg">
<path d="M9.49976 17.2499C9.21976 17.2499 8.93976 17.1399 8.71576 16.9337C7.23176 15.5037 2.30376 10.6224 1.02976 8.21617C0.147763 6.56617 0.203763 4.50367 1.15576 2.94992C2.00976 1.56117 3.49376 0.763672 5.21576 0.763672C7.39976 0.763672 8.75776 1.87742 9.49976 3.00492C10.2418 1.87742 11.5998 0.763672 13.7838 0.763672C15.5058 0.763672 16.9898 1.56117 17.8438 2.94992C18.7958 4.50367 18.8518 6.56617 17.9698 8.21617C16.6818 10.6362 11.7678 15.5037 10.2838 16.9337C10.0598 17.1537 9.77976 17.2499 9.49976 17.2499ZM5.21576 2.12492C3.98376 2.12492 2.96176 2.66117 2.35976 3.65117C1.64576 4.79242 1.61776 6.33242 2.27576 7.56992C3.19976 9.30242 6.57376 12.9049 9.51376 15.7649C12.4398 12.9049 15.8278 9.31617 16.7518 7.56992C17.4098 6.33242 17.3678 4.79242 16.6678 3.65117C16.0658 2.66117 15.0438 2.12492 13.8118 2.12492C10.8438 2.12492 10.2418 4.73742 10.2138 4.84742H8.84176C8.81376 4.73742 8.18376 2.12492 5.24376 2.12492H5.21576Z" fill="#777777"/>
<path d="M5.21576 2.12492C3.98376 2.12492 2.96176 2.66117 2.35976 3.65117C1.64576 4.79242 1.61776 6.33242 2.27576 7.56992C3.19976 9.30242 6.57376 12.9049 9.51376 15.7649C12.4398 12.9049 15.8278 9.31617 16.7518 7.56992C17.4098 6.33242 17.3678 4.79242 16.6678 3.65117C16.0658 2.66117 15.0438 2.12492 13.8118 2.12492C10.8438 2.12492 10.2418 4.73742 10.2138 4.84742H8.84176C8.81376 4.73742 8.18376 2.12492 5.24376 2.12492H5.21576Z" fill="white"/>
</svg>
