<svg width="88" height="96" viewBox="0 0 88 96" fill="none" xmlns="http://www.w3.org/2000/svg">
<path d="M70.0642 59.141C70.2572 59.0928 70.6914 59.0807 71.3669 59.1048C72.0665 59.129 72.6455 59.1772 73.1038 59.2496C74.31 59.3943 75.6127 60.0095 77.0118 61.095C78.411 62.1806 79.2312 63.2058 79.4725 64.1708C79.5207 64.412 79.6051 64.7136 79.7258 65.0754C79.8705 65.389 79.9429 66.0283 79.9429 66.9933C79.9429 67.9582 79.8826 68.5975 79.7619 68.9111C79.6654 69.1764 79.581 69.4418 79.5086 69.7072C79.388 70.069 79.1106 70.5032 78.6764 71.0098C78.2663 71.5164 77.8562 71.9145 77.4461 72.2039C76.2399 73.0241 75.5282 73.4704 75.3111 73.5428C75.1905 73.5669 74.7201 73.772 73.8999 74.158C72.5007 74.8334 71.6202 75.2315 71.2583 75.3521C71.1377 75.3762 71.0774 75.4365 71.0774 75.533C71.0774 75.8948 71.2101 76.6547 71.4755 77.8127C71.6443 78.5364 71.6564 79.1877 71.5116 79.7667C71.391 80.3457 71.1498 80.6954 70.7879 80.8161C70.209 81.0091 69.7144 80.9849 69.3043 80.7437C68.9183 80.5025 68.7254 80.1044 68.7254 79.5496C68.7254 79.3325 68.665 78.9585 68.5444 78.4278C68.4238 78.0177 68.3152 77.5473 68.2188 77.0166C68.1705 76.5824 68.0499 76.1481 67.8569 75.7139C67.2297 74.2424 67.6639 73.2654 69.1596 72.7829C72.368 71.7697 74.5753 70.6842 75.7815 69.5262C76.9877 68.3442 77.2893 67.0174 76.6862 65.5458C76.1554 64.2673 75.1302 63.2662 73.6104 62.5424C72.7902 62.1323 71.9097 61.9152 70.9689 61.8911C70.0522 61.867 69.2561 62.0358 68.5806 62.3977C68.3876 62.4701 68.2067 62.5304 68.0378 62.5786C67.869 62.6269 67.6036 62.7596 67.2417 62.9767C66.4457 63.4591 65.7702 63.5556 65.2154 63.2662C64.6846 62.9525 64.5278 62.3977 64.7449 61.6016C64.8897 61.0709 65.4566 60.5523 66.4457 60.0457C67.4589 59.5391 68.4359 59.2737 69.3767 59.2496C69.6662 59.2255 69.8953 59.1893 70.0642 59.141ZM69.4491 82.0102C69.8592 81.7931 70.2934 81.7328 70.7517 81.8293C71.2342 81.9016 71.6202 82.0946 71.9097 82.4082C72.2233 82.7218 72.4404 83.0837 72.561 83.4938C72.6816 83.9039 72.5851 84.3019 72.2715 84.6879C71.8614 85.3151 71.2222 85.5925 70.3537 85.5202C69.4852 85.4478 68.9425 85.0859 68.7254 84.4346C68.5565 84.0004 68.5444 83.542 68.6892 83.0596C68.858 82.553 69.1113 82.2032 69.4491 82.0102Z" fill="black"/>
<path d="M54.8654 58.0917C55.0102 58.0194 55.2394 58.0073 55.553 58.0556C55.8666 58.1038 56.0837 58.1762 56.2043 58.2727C56.2043 58.2727 56.2164 58.2847 56.2405 58.3089C56.4576 58.5018 56.5903 58.8516 56.6385 59.3582C56.6868 59.8648 56.723 61.5052 56.7471 64.2794C56.7471 64.5207 56.7471 64.7137 56.7471 64.8584C56.7953 68.8629 56.8798 71.034 57.0004 71.3718C57.0728 71.613 57.2778 71.7095 57.6155 71.6613C57.7603 71.613 57.8447 71.5889 57.8688 71.5889C59.268 71.3718 60.2933 71.2632 60.9446 71.2632C61.596 71.2391 62.0543 71.3115 62.3197 71.4803C62.6091 71.6251 62.778 71.9025 62.8263 72.3126C62.9228 72.8916 62.8142 73.3137 62.5006 73.5791C62.187 73.8444 61.596 74.0254 60.7275 74.1219C58.291 74.4113 57.0245 74.6888 56.928 74.9541C56.8798 75.0506 56.8315 76.7634 56.7833 80.0925C56.7833 80.1648 56.7833 80.2854 56.7833 80.4543C56.7592 83.2285 56.7109 84.8569 56.6385 85.3393C56.5662 85.8459 56.337 86.1957 55.951 86.3887C55.9269 86.3887 55.9148 86.4008 55.9148 86.4249C55.0946 86.835 54.5036 86.6903 54.1417 85.9907C53.7799 85.3152 53.7075 84.1935 53.9246 82.6254C53.997 82.0223 54.0573 79.7065 54.1055 75.6778C54.1779 71.6492 54.202 68.091 54.1779 65.0032C54.1297 61.0951 54.1538 59.0446 54.2503 58.8516C54.4192 58.4415 54.6242 58.1882 54.8654 58.0917ZM45.5658 59.0687C46.0241 58.8516 46.4463 58.8396 46.8323 59.0326C47.2182 59.2014 47.4112 59.515 47.4112 59.9734C47.4112 60.2629 47.2424 60.8177 46.9046 61.6379C46.5669 62.4581 46.1689 63.3145 45.7105 64.2071C45.4451 64.6895 45.1195 65.4133 44.7335 66.3782C44.3475 67.319 44.1183 67.9342 44.046 68.2236C44.0218 68.3925 44.0339 68.5373 44.0822 68.6579C44.1545 68.7544 44.3716 68.9835 44.7335 69.3454C45.409 70.045 45.9638 70.7807 46.398 71.5527C46.8323 72.3247 47.4233 73.6756 48.1711 75.6055C49.0155 77.6801 49.5944 79.0551 49.908 79.7306C50.6076 81.2745 50.9815 82.348 51.0298 82.9511C51.078 83.5301 50.8127 83.9402 50.2337 84.1814C49.7271 84.3985 49.2929 84.3141 48.931 83.9281C48.5933 83.5421 48.147 82.6616 47.5922 81.2866C47.2303 80.3458 46.8926 79.5376 46.579 78.8621C46.0965 77.8248 45.6984 76.9564 45.3848 76.2568C45.2883 76.0397 45.1677 75.7623 45.023 75.4245C44.9989 75.3763 44.8179 74.9662 44.4802 74.1942C44.1666 73.4946 43.7324 72.6865 43.1775 71.7698C43.1051 71.6733 43.0328 71.7457 42.9604 71.9869C42.9122 72.1075 42.888 72.2402 42.888 72.385C42.888 72.5538 42.6106 73.3982 42.0558 74.9179C41.5009 76.4377 41.0546 77.5715 40.7169 78.3194C40.4033 79.0431 39.9088 80.2975 39.2333 82.0826C38.4613 84.0608 37.6411 84.7483 36.7727 84.1452C35.9766 83.5662 35.8801 82.541 36.4832 81.0695C36.5073 80.9971 36.64 80.6714 36.8812 80.0925C37.1466 79.4894 37.3155 79.1275 37.3878 79.0069C37.6773 78.2832 37.9065 77.668 38.0754 77.1614C38.2442 76.7272 38.3407 76.498 38.3648 76.4739C38.4372 76.4015 38.4734 76.3051 38.4734 76.1844C38.4734 76.0397 38.4855 75.9432 38.5096 75.8949C38.5337 75.8708 38.7026 75.4245 39.0162 74.5561C39.3298 73.6876 39.5228 73.1207 39.5951 72.8554C39.7881 72.1317 40.1379 71.0461 40.6445 69.5987C40.6687 69.5504 41.0064 68.5855 41.6577 66.7039C42.2849 64.8946 42.9966 63.218 43.7927 61.6741C44.5888 60.1302 45.1798 59.2617 45.5658 59.0687Z" fill="black"/>
<path d="M27.9412 57.4402C28.1583 57.3679 28.4358 57.4041 28.7735 57.5488C29.1354 57.6694 29.3404 57.8262 29.3887 58.0192C29.5816 58.6223 29.6661 59.9008 29.642 61.8549C29.6178 63.64 29.6178 64.6411 29.642 64.8582V65.401L30.438 65.3287C32.1267 65.208 33.1881 65.2201 33.6224 65.3648C34.0566 65.5096 34.2737 65.9076 34.2737 66.559C34.2737 67.0414 34.1531 67.3671 33.9119 67.536C33.6706 67.7048 33.1399 67.8375 32.3197 67.934C30.7999 68.0787 29.9073 68.2838 29.642 68.5491C29.5213 68.6456 29.449 69.8518 29.4248 72.1677C29.4007 74.5318 29.3042 75.8827 29.1354 76.2205C29.0147 76.4617 28.677 76.6547 28.1222 76.7994C27.6156 76.9683 27.1693 76.7753 26.7833 76.2205C26.6144 76.0033 26.5179 75.6897 26.4938 75.2796C26.4938 74.8695 26.5421 73.977 26.6386 72.6019C26.6868 71.7093 26.7471 69.3211 26.8195 65.4372C26.8195 65.196 26.8195 64.8462 26.8195 64.3878C26.8919 61.0588 26.9642 59.1168 27.0366 58.562C27.109 57.983 27.3623 57.6212 27.7965 57.4764C27.8689 57.4523 27.9171 57.4402 27.9412 57.4402ZM16.5066 58.9238C17.3992 58.6826 18.4365 58.8394 19.6186 59.3943C20.8006 59.9491 21.7294 60.721 22.4048 61.7101C22.6461 62.072 22.7667 62.265 22.7667 62.2891C22.7667 62.3373 22.8391 62.5303 22.9838 62.868C23.418 63.7606 23.599 64.7617 23.5266 65.8714C23.4784 66.957 23.2612 68.0064 22.8753 69.0196C22.4893 70.0328 21.9224 70.9736 21.1745 71.842C20.4267 72.6863 19.5824 73.3377 18.6416 73.796C17.6042 74.2785 16.5428 74.5318 15.4572 74.5559C14.3958 74.5559 13.4429 74.3629 12.5986 73.977C11.7784 73.591 11.0426 73.0603 10.3912 72.3848C9.73991 71.7093 9.32981 70.9253 9.16094 70.0328C8.99207 69.1161 9.02826 68.1391 9.2695 67.1017C9.29362 67.0535 9.32981 66.9329 9.37805 66.7399C9.45042 66.5469 9.49867 66.4022 9.5228 66.3057C9.98115 64.8582 10.9461 63.3505 12.4176 61.7825C13.8892 60.2145 15.2522 59.2616 16.5066 58.9238ZM18.0626 61.9272C17.556 61.8066 17.1459 61.7945 16.8323 61.891C16.5187 61.9875 16.0724 62.265 15.4934 62.7233C14.4561 63.5435 13.5756 64.5567 12.8519 65.7629C12.1523 66.9449 11.8025 67.9581 11.8025 68.8024C11.8025 69.6468 12.092 70.3343 12.6709 70.865C13.274 71.3716 13.9736 71.6611 14.7697 71.7335C15.5658 71.8058 16.4101 71.649 17.3027 71.2631C18.1953 70.8771 18.9069 70.286 19.4376 69.49C20.5473 67.8254 20.9574 66.2453 20.6679 64.7497C20.4026 63.254 19.5341 62.3132 18.0626 61.9272ZM10.1741 76.0757C11.1391 75.6656 11.7181 76.1843 11.911 77.6317C12.1764 79.4168 12.5383 80.7677 12.9966 81.6844C13.455 82.577 14.0701 83.168 14.8421 83.4575C15.8794 83.8676 17.568 84.1089 19.908 84.1812C22.2722 84.2536 24.2865 84.133 25.951 83.8194C26.7712 83.6746 27.7482 83.4937 28.8821 83.2766C29.4852 83.156 29.9797 83.2284 30.3657 83.4937C30.7516 83.7591 30.9446 84.1571 30.9446 84.6878C30.9446 85.0979 30.7637 85.4236 30.4019 85.6648C30.04 85.9061 29.4369 86.0991 28.5926 86.2438C28.4237 86.2679 28.1463 86.3041 27.7603 86.3524C27.3985 86.4247 27.1572 86.473 27.0366 86.4971C26.9401 86.5212 26.7351 86.5453 26.4214 86.5695C26.132 86.6177 25.951 86.6539 25.8787 86.678C23.8764 86.9916 21.6811 87.0761 19.2929 86.9313C16.9288 86.8107 15.1074 86.5092 13.8289 86.0267C12.7433 85.5925 11.9231 85.0135 11.3683 84.2898C11.1753 84.0486 10.9461 83.6746 10.6807 83.168C10.4395 82.6615 10.3189 82.3478 10.3189 82.2272C10.3189 82.2031 10.2586 81.9981 10.1379 81.6121C9.6796 80.237 9.45042 79.0188 9.45042 77.9573C9.45042 76.8959 9.69166 76.2687 10.1741 76.0757Z" fill="black"/>
<path d="M55.9696 10.1158C56.1143 10.0193 56.3676 9.98311 56.7295 10.0072C57.0913 10.0314 57.3567 10.1037 57.5255 10.2243C57.815 10.4415 58.008 10.8516 58.1045 11.4547C58.201 12.0336 58.2251 12.9865 58.1769 14.3133C58.1528 15.4954 58.1166 17.7027 58.0683 20.9352C58.0442 23.9507 57.996 25.5428 57.9236 25.7117C57.8512 25.8323 57.7547 26.0012 57.6341 26.2183C57.5376 26.363 57.4894 26.4716 57.4894 26.544C57.5135 26.5922 57.5979 26.7128 57.7426 26.9058C58.4181 27.7501 58.7438 28.9443 58.7197 30.4882C58.7197 32.0321 58.3699 33.0211 57.6703 33.4554C57.2119 33.7448 56.6088 33.9861 55.861 34.1791C55.4027 34.2997 54.4618 34.4927 53.0385 34.758C52.2183 34.9269 50.795 35.2526 48.7686 35.735C47.6348 36.0245 46.9111 36.1934 46.5975 36.2416C46.2839 36.314 45.922 36.3984 45.5119 36.4949C45.1018 36.5914 44.74 36.6638 44.4264 36.712C43.2684 36.9533 42.5447 37.1825 42.2552 37.3996C41.9658 37.6408 41.9778 37.9906 42.2914 38.4489C42.8221 39.2209 43.8957 39.7154 45.5119 39.9325C46.2598 40.0532 47.9484 40.0532 50.5779 39.9325C53.2074 39.8119 55.1132 39.6551 56.2952 39.4621C58.3699 39.1244 59.3107 39.5948 59.1177 40.8734C59.0453 41.3076 58.8282 41.6212 58.4664 41.8142C58.1045 42.0072 57.4773 42.1399 56.5847 42.2122C55.6439 42.2605 54.7151 42.3328 53.7984 42.4293C51.6997 42.6223 49.6733 42.6947 47.7193 42.6464C45.7652 42.6223 44.2937 42.4776 43.3046 42.2122C42.2673 41.971 41.4833 41.6091 40.9526 41.1267C40.4218 40.6683 39.9273 39.9446 39.469 38.9555C39.276 38.4972 39.1553 37.9544 39.1071 37.3272C39.083 36.7 39.1553 36.2296 39.3242 35.916C39.469 35.5782 39.6861 35.3491 39.9756 35.2284C40.265 35.0837 41.0732 34.8183 42.4 34.4324C42.593 34.36 43.0272 34.2514 43.7027 34.1067C43.8233 34.0826 43.9921 34.0464 44.2093 33.9981C44.4505 33.9258 44.6555 33.8775 44.8244 33.8534C44.9933 33.8052 45.126 33.769 45.2225 33.7448C45.9462 33.576 46.6337 33.4192 47.285 33.2744C47.7916 33.1779 48.2017 33.0814 48.5153 32.9849C49.625 32.6955 50.7227 32.4422 51.8082 32.2251C53.8346 31.815 55.0167 31.5255 55.3544 31.3566C55.6921 31.1636 55.861 30.7656 55.861 30.1625C55.861 29.5594 55.7886 29.2096 55.6439 29.1131C55.5233 29.0166 55.1132 29.0046 54.4136 29.0769C53.2315 29.1975 52.158 29.3664 51.1931 29.5835C50.4452 29.7524 50.0593 29.8368 50.0351 29.8368C49.7456 29.9092 48.6963 30.1746 46.887 30.6329C43.3408 31.5496 41.2782 32.0683 40.6993 32.1889C40.1444 32.3095 39.7102 32.2974 39.3966 32.1527C38.6487 31.8391 38.4437 31.2601 38.7814 30.4158C38.8779 30.1987 39.0227 30.0419 39.2157 29.9454C39.4086 29.8248 39.8067 29.68 40.4098 29.5112C41.0852 29.3423 41.6039 29.1975 41.9658 29.0769C42.4241 28.9322 42.7377 28.8478 42.9066 28.8236C43.3408 28.7271 43.8353 28.6065 44.3902 28.4618C45.1139 28.2688 45.6567 28.1361 46.0185 28.0637C46.4045 27.9914 47.2247 27.7984 48.4792 27.4848C50.1919 27.0747 51.5067 26.7973 52.4234 26.6525C52.5681 26.6284 52.8214 26.5801 53.1833 26.5078C53.5693 26.4354 53.7622 26.3992 53.7622 26.3992C54.1965 26.3027 54.5463 26.2545 54.8116 26.2545C55.1252 26.2545 55.3182 26.1942 55.3906 26.0735C55.463 25.9529 55.463 25.6393 55.3906 25.1327C55.3423 24.5296 55.3062 23.5888 55.282 22.3103C55.282 22.1655 55.282 21.9725 55.282 21.7313C55.282 20.7181 55.2338 20.1391 55.1373 19.9944C55.0649 19.8497 54.7513 19.8376 54.1965 19.9582C54.0759 19.9823 53.9794 19.9944 53.907 19.9944C53.4245 20.0909 52.9662 20.1753 52.5319 20.2477C50.9156 20.4889 49.7698 20.706 49.0943 20.899C49.0219 20.899 48.6842 20.9955 48.0811 21.1885C47.6469 21.3091 47.3695 21.3694 47.2488 21.3694C47.1765 21.3694 47.08 21.4177 46.9594 21.5142C46.8629 21.5866 46.8146 21.6469 46.8146 21.6951C46.8146 21.7192 46.7061 21.9605 46.4889 22.4188C46.4407 22.5636 46.3442 22.7927 46.1995 23.1063C46.0547 23.4199 45.9703 23.6129 45.9462 23.6853C45.7773 24.023 45.5481 24.5658 45.2586 25.3136C44.8485 26.351 44.4626 27.0867 44.1007 27.521C43.763 27.9552 43.3167 28.2447 42.7618 28.3894C42.4241 28.4859 42.0864 28.2929 41.7486 27.8104C41.435 27.3038 41.3627 26.8937 41.5315 26.5801C41.5798 26.4836 41.7486 26.1097 42.0381 25.4584C42.4965 24.3728 42.8583 23.5647 43.1237 23.034C43.1961 22.8651 43.2323 22.7445 43.2323 22.6721C43.2323 22.6239 43.3167 22.4188 43.4855 22.057C43.7027 21.5745 43.8112 21.3333 43.8112 21.3333C43.8353 21.285 43.8595 21.2368 43.8836 21.1885C43.9077 21.1403 43.9318 21.08 43.956 21.0076C43.9801 20.9111 44.0042 20.8387 44.0283 20.7905C44.1007 20.5975 44.2334 20.2598 44.4264 19.7773C44.6435 19.1983 44.752 18.8968 44.752 18.8727C45.0657 18.1489 45.2828 17.3046 45.4034 16.3397C45.5481 15.3506 45.5361 14.7596 45.3672 14.5666C45.1501 14.3254 44.3299 14.3495 42.9066 14.639C41.5074 14.9284 40.0359 15.3868 38.4919 16.014C37.6476 16.3276 37.0325 16.5085 36.6465 16.5568C36.2605 16.605 35.9469 16.5206 35.7057 16.3035C35.4403 16.0864 35.3076 15.7848 35.3076 15.3989C35.3076 15.0129 35.4403 14.6631 35.7057 14.3495C35.8022 14.2289 36.2484 13.9997 37.0445 13.662C37.8406 13.3242 38.5281 13.0709 39.1071 12.9021C39.2036 12.8779 39.3725 12.8297 39.6137 12.7573C39.8549 12.6608 40.0117 12.6005 40.0841 12.5764C40.4701 12.4558 41.2059 12.2749 42.2914 12.0336C43.763 11.7441 44.8727 11.6356 45.6205 11.7079C46.3683 11.7562 46.9714 12.0095 47.4298 12.4678C47.9364 12.9986 48.2259 13.674 48.2982 14.4942C48.3947 15.3144 48.2862 16.5085 47.9726 18.0766C47.9726 18.1731 47.9726 18.2454 47.9726 18.2937C47.9967 18.3178 48.0449 18.3419 48.1173 18.3661C48.2138 18.3661 48.3344 18.354 48.4792 18.3299C48.6239 18.2816 48.841 18.2213 49.1305 18.1489C49.806 17.9801 50.8433 17.775 52.2424 17.5338C53.6416 17.2684 54.4739 17.1358 54.7393 17.1358C55.0287 17.1358 55.1976 16.991 55.2458 16.7015C55.3182 16.412 55.3665 15.4592 55.3906 13.8429C55.4147 12.2749 55.4509 11.3099 55.4991 10.9481C55.5715 10.5862 55.7283 10.3088 55.9696 10.1158Z" fill="black"/>
<path d="M30.185 12.2509C30.4745 12.1302 30.7881 12.1302 31.1258 12.2509C31.4635 12.3474 31.6807 12.5162 31.7772 12.7575C31.946 13.1193 31.946 14.5909 31.7772 17.1721C31.5359 20.9354 31.4756 25.1449 31.5962 29.8008C31.741 36.097 31.6807 39.4381 31.4153 39.8241C31.1017 40.2583 30.7036 40.4634 30.2212 40.4393C29.7628 40.4393 29.3768 40.2101 29.0632 39.7518C28.8461 39.414 28.7496 35.4698 28.7738 27.9191C28.7979 20.3443 28.9185 15.7247 29.1356 14.0601C29.2803 13.0711 29.6301 12.468 30.185 12.2509ZM16.724 14.2772C17.713 13.9395 18.8227 14.1566 20.053 14.9286C21.3075 15.6764 22.2724 16.7499 22.9479 18.1491C23.5027 19.2829 23.8646 20.284 24.0334 21.1525C24.2023 21.9968 24.2867 23.3236 24.2867 25.1329C24.2626 26.4114 24.2264 27.316 24.1782 27.8468C24.1541 28.3534 24.0455 29.1977 23.8525 30.3797C23.563 32.2131 23.0203 33.8535 22.2242 35.301C21.4281 36.7242 20.5114 37.6892 19.4741 38.1958C18.2196 38.823 16.9893 39.0401 15.7831 38.8471C14.6011 38.6783 13.5396 38.2078 12.5988 37.4359C11.658 36.6881 10.8619 35.6146 10.2106 34.2154C9.58335 32.8162 9.19738 31.2361 9.05263 29.4751C8.95614 28.4137 8.99232 27.2919 9.16119 26.1099C9.35418 24.9278 9.64366 23.9146 10.0296 23.0703C10.2226 22.6361 10.3312 22.3828 10.3553 22.3104C11.1031 20.477 12.1043 18.7763 13.3587 17.2083C14.6373 15.6161 15.759 14.6391 16.724 14.2772ZM18.2076 17.1721C17.9663 17.0756 17.7854 17.0515 17.6648 17.0997C17.5683 17.1238 17.3632 17.2927 17.0496 17.6063C14.7579 19.9945 13.1416 22.6361 12.2008 25.5309C11.7907 26.7853 11.6942 28.1845 11.9113 29.7284C12.1284 31.2723 12.6109 32.6594 13.3587 33.8897C13.9859 34.9029 14.7699 35.5542 15.7108 35.8437C16.6516 36.1091 17.5562 35.9764 18.4247 35.4457C19.1243 35.0115 19.7394 34.143 20.2702 32.8403C20.8009 31.5135 21.1748 30.0782 21.3919 28.5343C21.609 26.9663 21.6573 25.3741 21.5366 23.7578C21.416 22.1174 21.1145 20.7906 20.632 19.7774C20.3425 19.1743 19.9686 18.6316 19.5103 18.1491C19.076 17.6666 18.6418 17.3409 18.2076 17.1721Z" fill="black"/>
</svg>
