<svg width="41" height="40" viewBox="0 0 41 40" fill="none" xmlns="http://www.w3.org/2000/svg">
<path d="M14.75 20C14.2 20 13.7293 19.8043 13.338 19.413C12.9467 19.0217 12.7507 18.5507 12.75 18V16C12.4667 16 12.2293 15.904 12.038 15.712C11.8467 15.52 11.7507 15.2827 11.75 15C11.7493 14.7173 11.8453 14.48 12.038 14.288C12.2307 14.096 12.468 14 12.75 14V11C12.4667 11 12.2293 10.904 12.038 10.712C11.8467 10.52 11.7507 10.2827 11.75 10C11.7493 9.71733 11.8453 9.48 12.038 9.288C12.2307 9.096 12.468 9 12.75 9V6C12.4667 6 12.2293 5.904 12.038 5.712C11.8467 5.52 11.7507 5.28267 11.75 5C11.7493 4.71733 11.8453 4.48 12.038 4.288C12.2307 4.096 12.468 4 12.75 4V2C12.75 1.45 12.946 0.979333 13.338 0.588C13.73 0.196667 14.2007 0.000666667 14.75 0H26.75C27.3 0 27.771 0.196 28.163 0.588C28.555 0.98 28.7507 1.45067 28.75 2V18C28.75 18.55 28.5543 19.021 28.163 19.413C27.7717 19.805 27.3007 20.0007 26.75 20H14.75ZM14.75 18H26.75V2H14.75V4C15.0333 4 15.271 4.096 15.463 4.288C15.655 4.48 15.7507 4.71733 15.75 5C15.7493 5.28267 15.6533 5.52033 15.462 5.713C15.2707 5.90567 15.0333 6.00133 14.75 6V9C15.0333 9 15.271 9.096 15.463 9.288C15.655 9.48 15.7507 9.71733 15.75 10C15.7493 10.2827 15.6533 10.5203 15.462 10.713C15.2707 10.9057 15.0333 11.0013 14.75 11V14C15.0333 14 15.271 14.096 15.463 14.288C15.655 14.48 15.7507 14.7173 15.75 15C15.7493 15.2827 15.6533 15.5203 15.462 15.713C15.2707 15.9057 15.0333 16.0013 14.75 16V18ZM18.25 11V14.25C18.25 14.4667 18.321 14.646 18.463 14.788C18.605 14.93 18.784 15.0007 19 15C19.216 14.9993 19.3953 14.9283 19.538 14.787C19.6807 14.6457 19.7513 14.4667 19.75 14.25V11C20.1833 10.8833 20.5417 10.646 20.825 10.288C21.1083 9.93 21.25 9.52567 21.25 9.075V5.5C21.25 5.36667 21.2 5.25 21.1 5.15C21 5.05 20.8833 5 20.75 5C20.6167 5 20.5 5.05 20.4 5.15C20.3 5.25 20.25 5.36667 20.25 5.5V8.775H19.5V5.5C19.5 5.36667 19.45 5.25 19.35 5.15C19.25 5.05 19.1333 5 19 5C18.8667 5 18.75 5.05 18.65 5.15C18.55 5.25 18.5 5.36667 18.5 5.5V8.775H17.75V5.5C17.75 5.36667 17.7 5.25 17.6 5.15C17.5 5.05 17.3833 5 17.25 5C17.1167 5 17 5.05 16.9 5.15C16.8 5.25 16.75 5.36667 16.75 5.5V9.075C16.75 9.525 16.8917 9.92933 17.175 10.288C17.4583 10.6467 17.8167 10.884 18.25 11ZM23.75 11V14.25C23.75 14.4667 23.821 14.646 23.963 14.788C24.105 14.93 24.284 15.0007 24.5 15C24.716 14.9993 24.8953 14.9283 25.038 14.787C25.1807 14.6457 25.2513 14.4667 25.25 14.25V5.575C25.25 5.39167 25.1877 5.25 25.063 5.15C24.9383 5.05 24.7757 5 24.575 5C24.3583 5 24.121 5.05833 23.863 5.175C23.605 5.29167 23.359 5.46667 23.125 5.7C22.8417 5.98333 22.625 6.30433 22.475 6.663C22.325 7.02167 22.25 7.409 22.25 7.825V10C22.25 10.2833 22.346 10.521 22.538 10.713C22.73 10.905 22.9673 11.0007 23.25 11H23.75Z" fill="black"/>
<path d="M4.82422 30.6797V33.4102H6.23047V29.6953H7.29688V39.4805H6.23047V34.3242H4.82422V37.2305H0.746094V30.6797H4.82422ZM1.80078 31.5586V36.3398H3.78125V31.5586H1.80078ZM9.42969 29.4961V39.9961H8.36328V29.4961H9.42969ZM19.2383 32.9648V33.8672H11.9609V30.0117H13.0859V32.9648H19.2383ZM20.3398 35.2852V36.1875H17.9492V39.9961H16.8242V36.1875H14.2812V39.9961H13.168V36.1875H10.7656V35.2852H20.3398ZM26.9844 30.293V30.8789C26.9727 31.582 26.9727 32.625 26.7148 33.9844L25.6133 33.8789C25.8418 32.7129 25.877 31.8691 25.8945 31.207H21.6875V30.293H26.9844ZM24.3008 32.6484V34.8164C25.4258 34.7812 26.5859 34.6992 27.6406 34.5469L27.7109 35.3555C25.5195 35.7422 23.0117 35.7773 21.1602 35.7891L21.0547 34.8867C21.6992 34.8809 22.4316 34.875 23.1992 34.8516V32.6484H24.3008ZM29.4453 29.4961V32.8359H30.8867V33.7734H29.4453V37.3828H28.3086V29.4961H29.4453ZM29.7852 38.8711V39.7734H22.6484V36.668H23.7617V38.8711H29.7852ZM40.2266 29.4961V40.0195H39.1133V29.4961H40.2266ZM37.0156 30.4453V34.2773H33.2422V36.5742C34.9414 36.5684 36.4297 36.4922 38.1875 36.1992L38.293 37.1133C36.4297 37.4297 34.8477 37.5 32.9961 37.5H32.1055V33.3867H35.8789V31.3477H32.0938V30.4453H37.0156Z" fill="black"/>
</svg>
