<svg width="94" height="40" viewBox="0 0 94 40" fill="none" xmlns="http://www.w3.org/2000/svg">
<path d="M40.3896 30.9297H41.6982L43.9346 36.4082H44.0225L46.2588 30.9297H47.5674V38H46.542V32.8926H46.4736L44.4033 37.9902H43.5537L41.4736 32.8828H41.415V38H40.3896V30.9297ZM48.4658 30.9297H49.6865L51.5225 34.1328H51.6006L53.4463 30.9297H54.667L52.0986 35.2266V38H51.0244V35.2266L48.4658 30.9297Z" fill="#A82D2F"/>
<path d="M47.25 12C46.15 12 45.2083 11.6083 44.425 10.825C43.6417 10.0417 43.25 9.1 43.25 8C43.25 6.9 43.6417 5.95833 44.425 5.175C45.2083 4.39167 46.15 4 47.25 4C48.35 4 49.2917 4.39167 50.075 5.175C50.8583 5.95833 51.25 6.9 51.25 8C51.25 9.1 50.8583 10.0417 50.075 10.825C49.2917 11.6083 48.35 12 47.25 12ZM39.25 20V17.2C39.25 16.6333 39.396 16.1127 39.688 15.638C39.98 15.1633 40.3673 14.8007 40.85 14.55C41.8833 14.0333 42.9333 13.646 44 13.388C45.0667 13.13 46.15 13.0007 47.25 13C48.35 12.9993 49.4333 13.1287 50.5 13.388C51.5667 13.6473 52.6167 14.0347 53.65 14.55C54.1333 14.8 54.521 15.1627 54.813 15.638C55.105 16.1133 55.2507 16.634 55.25 17.2V20H39.25Z" fill="#A82D2F"/>
</svg>
