<svg width="41" height="40" viewBox="0 0 41 40" fill="none" xmlns="http://www.w3.org/2000/svg">
<path d="M26.3409 2H15.4318C14.2268 2 13.25 2.89543 13.25 4V17C13.25 18.1046 14.2268 19 15.4318 19H26.3409C27.5459 19 28.5227 18.1046 28.5227 17V4C28.5227 2.89543 27.5459 2 26.3409 2Z" stroke="#A82D2F" stroke-width="2"/>
<path d="M17.6138 7H24.1592M17.6138 11H24.1592M17.6138 15H21.9774" stroke="#A82D2F" stroke-width="2" stroke-linecap="round"/>
<path d="M10.4688 35.4141V36.3164H6.20312V39.9844H5.11328V36.3164H0.894531V35.4141H10.4688ZM9.56641 30.1172V31.0078H6.32031C6.33789 32.3086 7.95508 33.4688 9.94141 33.7383L9.53125 34.6172C7.80859 34.3477 6.32031 33.498 5.6875 32.2969C5.03711 33.498 3.55469 34.3477 1.85547 34.6172L1.43359 33.7383C3.39648 33.4688 5.01367 32.3086 5.05469 31.0078H1.78516V30.1172H9.56641ZM20.8633 34.8047V35.707H16.6914V37.7461H15.5898V35.707H11.2539V34.8047H20.8633ZM19.6211 29.9883V33.7148H12.4844V29.9883H19.6211ZM13.5742 30.8672V32.8359H18.5195V30.8672H13.5742ZM19.7969 38.8711V39.7734H12.4492V36.75H13.5625V38.8711H19.7969ZM27.4844 30.293V30.8789C27.4727 31.582 27.4727 32.625 27.2148 33.9844L26.1133 33.8789C26.3418 32.7129 26.377 31.8691 26.3945 31.207H22.1875V30.293H27.4844ZM24.8008 32.6484V34.8164C25.9258 34.7812 27.0859 34.6992 28.1406 34.5469L28.2109 35.3555C26.0195 35.7422 23.5117 35.7773 21.6602 35.7891L21.5547 34.8867C22.1992 34.8809 22.9316 34.875 23.6992 34.8516V32.6484H24.8008ZM29.9453 29.4961V32.8359H31.3867V33.7734H29.9453V37.3828H28.8086V29.4961H29.9453ZM30.2852 38.8711V39.7734H23.1484V36.668H24.2617V38.8711H30.2852ZM40.7266 29.4961V40.0195H39.6133V29.4961H40.7266ZM37.5156 30.4453V34.2773H33.7422V36.5742C35.4414 36.5684 36.9297 36.4922 38.6875 36.1992L38.793 37.1133C36.9297 37.4297 35.3477 37.5 33.4961 37.5H32.6055V33.3867H36.3789V31.3477H32.5938V30.4453H37.5156Z" fill="#A82D2F"/>
</svg>
