<svg width="95" height="40" viewBox="0 0 95 40" fill="none" xmlns="http://www.w3.org/2000/svg">
<path d="M38 30.627V31.3984C38 32.2285 38 33.127 37.7559 34.377H39.0156V35.1387H35.4707V38.8398H34.5332V35.1387H31.0371V34.377H36.8184C37.082 33.1318 37.082 32.2139 37.082 31.3984V31.3887H32.0137V30.627H38ZM47.209 30.0801V38.8301H46.3203V34.2695H45.2363V38.4004H44.3574V30.2461H45.2363V33.5078H46.3203V30.0801H47.209ZM43.3711 31.0664V36.5254H39.9727V31.0664H43.3711ZM40.8516 31.7988V35.7832H42.502V31.7988H40.8516ZM55.8125 30.0801V38.8301H54.9238V34.3477H53.8008V38.3809H52.9316V30.2559H53.8008V33.5859H54.9238V30.0801H55.8125ZM49.6602 31.1152V35.7832C50.4707 35.7783 51.3545 35.7148 52.3457 35.5195L52.4434 36.3301C51.2422 36.5449 50.2363 36.6035 49.2988 36.6035H48.7324V31.1152H49.6602ZM64.2598 35.6953V38.8301H63.332V36.4277H58.332V35.6953H64.2598ZM64.2598 30.0801V35.2363H63.332V34.0352H61.1738C60.7686 34.5137 60.1289 34.8018 59.3867 34.7969C58.0684 34.8066 57.0918 33.9277 57.0918 32.6777C57.0918 31.4473 58.0684 30.5586 59.3867 30.5684C60.1289 30.5635 60.7637 30.8516 61.1738 31.3301H63.332V30.0801H64.2598ZM59.3867 31.3496C58.5664 31.3496 57.9805 31.8965 57.9805 32.6777C57.9805 33.4785 58.5664 34.0156 59.3867 34.0156C60.1777 34.0156 60.7734 33.4785 60.7734 32.6777C60.7734 31.8965 60.1777 31.3496 59.3867 31.3496ZM61.584 33.2734H63.332V32.0918H61.584C61.6328 32.2773 61.6621 32.4727 61.6621 32.6777C61.6621 32.8877 61.6328 33.0879 61.584 33.2734Z" fill="#777777"/>
<path d="M41.75 2C41.1533 2 40.581 2.23705 40.159 2.65901C39.7371 3.08097 39.5 3.65326 39.5 4.25V19.75C39.5 20.3467 39.7371 20.919 40.159 21.341C40.581 21.7629 41.1533 22 41.75 22H53.25C53.5455 22 53.8381 21.9418 54.111 21.8287C54.384 21.7157 54.6321 21.5499 54.841 21.341C55.0499 21.1321 55.2157 20.884 55.3287 20.611C55.4418 20.3381 55.5 20.0455 55.5 19.75V4.25C55.5 3.95453 55.4418 3.66194 55.3287 3.38896C55.2157 3.11598 55.0499 2.86794 54.841 2.65901C54.6321 2.45008 54.384 2.28434 54.111 2.17127C53.8381 2.0582 53.5455 2 53.25 2H41.75ZM43.25 6H51.75C51.9489 6 52.1397 6.07902 52.2803 6.21967C52.421 6.36032 52.5 6.55109 52.5 6.75C52.5 6.94891 52.421 7.13968 52.2803 7.28033C52.1397 7.42098 51.9489 7.5 51.75 7.5H43.25C43.0511 7.5 42.8603 7.42098 42.7197 7.28033C42.579 7.13968 42.5 6.94891 42.5 6.75C42.5 6.55109 42.579 6.36032 42.7197 6.21967C42.8603 6.07902 43.0511 6 43.25 6ZM42.5 16.75C42.5 16.5511 42.579 16.3603 42.7197 16.2197C42.8603 16.079 43.0511 16 43.25 16H51.75C51.9489 16 52.1397 16.079 52.2803 16.2197C52.421 16.3603 52.5 16.5511 52.5 16.75C52.5 16.9489 52.421 17.1397 52.2803 17.2803C52.1397 17.421 51.9489 17.5 51.75 17.5H43.25C43.0511 17.5 42.8603 17.421 42.7197 17.2803C42.579 17.1397 42.5 16.9489 42.5 16.75ZM43.25 11H51.75C51.9489 11 52.1397 11.079 52.2803 11.2197C52.421 11.3603 52.5 11.5511 52.5 11.75C52.5 11.9489 52.421 12.1397 52.2803 12.2803C52.1397 12.421 51.9489 12.5 51.75 12.5H43.25C43.0511 12.5 42.8603 12.421 42.7197 12.2803C42.579 12.1397 42.5 11.9489 42.5 11.75C42.5 11.5511 42.579 11.3603 42.7197 11.2197C42.8603 11.079 43.0511 11 43.25 11Z" fill="#777777"/>
</svg>
