<svg width="60" height="60" viewBox="0 0 60 60" fill="none" xmlns="http://www.w3.org/2000/svg">
<g filter="url(#filter0_i_418_5060)">
<path d="M29.9998 43.1875L19.6248 49.4375C19.1665 49.7292 18.6873 49.8542 18.1873 49.8125C17.6873 49.7708 17.2498 49.6042 16.8748 49.3125C16.4998 49.0208 16.2082 48.6567 15.9998 48.22C15.7915 47.7833 15.7498 47.2933 15.8748 46.75L18.6248 34.9375L9.43735 27C9.02068 26.625 8.76068 26.1975 8.65735 25.7175C8.55401 25.2375 8.58485 24.7692 8.74985 24.3125C8.91485 23.8558 9.16485 23.4808 9.49985 23.1875C9.83485 22.8942 10.2932 22.7067 10.8748 22.625L22.9998 21.5625L27.6873 10.4375C27.8957 9.9375 28.219 9.5625 28.6573 9.3125C29.0957 9.0625 29.5432 8.9375 29.9998 8.9375C30.4565 8.9375 30.904 9.0625 31.3423 9.3125C31.7807 9.5625 32.104 9.9375 32.3123 10.4375L36.9998 21.5625L49.1248 22.625C49.7082 22.7083 50.1665 22.8958 50.4998 23.1875C50.8332 23.4792 51.0832 23.8542 51.2498 24.3125C51.4165 24.7708 51.4482 25.24 51.3448 25.72C51.2415 26.2 50.9807 26.6267 50.5623 27L41.3748 34.9375L44.1248 46.75C44.2498 47.2917 44.2082 47.7817 43.9998 48.22C43.7915 48.6583 43.4998 49.0225 43.1248 49.3125C42.7498 49.6025 42.3123 49.7692 41.8123 49.8125C41.3123 49.8558 40.8332 49.7308 40.3748 49.4375L29.9998 43.1875Z" fill="black"/>
</g>
<defs>
<filter id="filter0_i_418_5060" x="8.59766" y="8.9375" width="43.8066" height="41.8833" filterUnits="userSpaceOnUse" color-interpolation-filters="sRGB">
<feFlood flood-opacity="0" result="BackgroundImageFix"/>
<feBlend mode="normal" in="SourceGraphic" in2="BackgroundImageFix" result="shape"/>
<feColorMatrix in="SourceAlpha" type="matrix" values="0 0 0 0 0 0 0 0 0 0 0 0 0 0 0 0 0 0 127 0" result="hardAlpha"/>
<feOffset dx="1" dy="1"/>
<feGaussianBlur stdDeviation="2"/>
<feComposite in2="hardAlpha" operator="arithmetic" k2="-1" k3="1"/>
<feColorMatrix type="matrix" values="0 0 0 0 0.85098 0 0 0 0 0.85098 0 0 0 0 0.85098 0 0 0 1 0"/>
<feBlend mode="normal" in2="shape" result="effect1_innerShadow_418_5060"/>
</filter>
</defs>
</svg>
