<svg width="326" height="55" viewBox="0 0 326 55" fill="none" xmlns="http://www.w3.org/2000/svg">
<g filter="url(#filter0_i_879_4802)">
<rect x="0.5" y="0.5" width="325" height="54" rx="14.5" stroke="#777777"/>
<path d="M32.875 21.75V22.9375H24.5312V21.75H27.9688V20.2656H29.4531V21.75H32.875ZM28.7031 23.5625C30.7188 23.5781 32.0938 24.5781 32.0938 26.1094C32.0938 27.6406 30.7188 28.6562 28.7031 28.6562C26.6719 28.6562 25.2969 27.6406 25.2969 26.1094C25.2969 24.5781 26.6719 23.5781 28.7031 23.5625ZM28.7031 24.7031C27.5156 24.7031 26.7188 25.25 26.7344 26.1094C26.7188 26.9844 27.5156 27.5 28.7031 27.5C29.8906 27.5 30.6875 26.9844 30.7031 26.1094C30.6875 25.25 29.8906 24.7031 28.7031 24.7031ZM35.5156 20.3281V24.125H37.5469V25.3594H35.5156V29.0781H34.0312V20.3281H35.5156ZM35.5156 29.7969V34.3281H34.0312V31H26.2656V29.7969H35.5156ZM42.625 23.0156C42.625 24.5469 43.6094 26.0938 45.4219 26.7812L44.6406 27.9219C43.3359 27.4219 42.4219 26.4688 41.9219 25.3125C41.4062 26.6172 40.4453 27.75 39.0938 28.3281L38.2812 27.1719C40.1719 26.3438 41.1875 24.5781 41.1875 23.0156V21.2031H42.625V23.0156ZM50.2812 20.3438V28.9531H48.875V25.2031H47.2344V28.5156H45.8594V20.5938H47.2344V23.9844H48.875V20.3438H50.2812ZM45.5938 29.2188C48.5156 29.2188 50.3438 30.1719 50.3594 31.7656C50.3438 33.3594 48.5156 34.3125 45.5938 34.2969C42.6719 34.3125 40.8438 33.3594 40.8594 31.7656C40.8438 30.1719 42.6719 29.2188 45.5938 29.2188ZM45.5938 30.3594C43.5625 30.3594 42.3125 30.875 42.3281 31.7656C42.3125 32.6562 43.5625 33.1719 45.5938 33.1562C47.625 33.1719 48.8594 32.6562 48.875 31.7656C48.8594 30.875 47.625 30.3594 45.5938 30.3594ZM67.6875 20.3438V30.5156H66.2031V20.3438H67.6875ZM68.1094 32.8281V34.0312H58.5312V29.4844H60.0312V32.8281H68.1094ZM60.0938 21.2812C62.2031 21.2812 63.8125 22.7188 63.8125 24.75C63.8125 26.8125 62.2031 28.2344 60.0938 28.2344C57.9844 28.2344 56.3594 26.8125 56.3594 24.75C56.3594 22.7188 57.9844 21.2812 60.0938 21.2812ZM60.0938 22.5781C58.7812 22.5781 57.8125 23.4688 57.8125 24.75C57.8125 26.0625 58.7812 26.9375 60.0938 26.9375C61.375 26.9375 62.3594 26.0625 62.3594 24.75C62.3594 23.4688 61.375 22.5781 60.0938 22.5781ZM82.6719 26.9219V28.125H69.9062V26.9219H82.6719ZM76.2812 29.2031C79.2969 29.2031 81.1094 30.1406 81.1094 31.7656C81.1094 33.3906 79.2969 34.3125 76.2812 34.2969C73.25 34.3125 71.4219 33.3906 71.4219 31.7656C71.4219 30.1406 73.25 29.2031 76.2812 29.2031ZM76.2812 30.3594C74.1406 30.375 72.9219 30.8594 72.9219 31.7656C72.9219 32.6562 74.1406 33.125 76.2812 33.125C78.3906 33.125 79.625 32.6562 79.625 31.7656C79.625 30.8594 78.3906 30.375 76.2812 30.3594ZM81.5312 21.0156V22.2344H77.2812C77.4453 23.5938 79.4297 24.75 82.0156 25.0156L81.4844 26.1875C79.0625 25.9062 77.0547 24.8828 76.2969 23.4062C75.5156 24.8828 73.5156 25.9062 71.0938 26.1875L70.5781 25.0156C73.1172 24.75 75.1172 23.6016 75.2969 22.2344H71.0781V21.0156H81.5312Z" fill="black"/>
<g filter="url(#filter1_i_879_4802)">
<path fill-rule="evenodd" clip-rule="evenodd" d="M272 19.5C272 18.7044 272.316 17.9413 272.879 17.3787C273.441 16.8161 274.204 16.5 275 16.5H299C299.796 16.5 300.559 16.8161 301.121 17.3787C301.684 17.9413 302 18.7044 302 19.5V35.5C302 36.2956 301.684 37.0587 301.121 37.6213C300.559 38.1839 299.796 38.5 299 38.5H275C274.204 38.5 273.441 38.1839 272.879 37.6213C272.316 37.0587 272 36.2956 272 35.5V19.5ZM278 24.5C278 23.4391 278.421 22.4217 279.172 21.6716C279.922 20.9214 280.939 20.5 282 20.5C283.061 20.5 284.078 20.9214 284.828 21.6716C285.579 22.4217 286 23.4391 286 24.5C286 25.5609 285.579 26.5783 284.828 27.3284C284.078 28.0786 283.061 28.5 282 28.5C280.939 28.5 279.922 28.0786 279.172 27.3284C278.421 26.5783 278 25.5609 278 24.5ZM296 24.5H290V22.5H296V24.5ZM296 30.5H290V28.5H296V30.5ZM282 30.5C280.913 30.5007 279.848 30.8037 278.923 31.3752C277.998 31.9466 277.251 32.7641 276.764 33.736L276.104 35.052C276.028 35.2046 275.991 35.3743 275.999 35.5448C276.007 35.7153 276.058 35.881 276.148 36.0262C276.237 36.1714 276.363 36.2911 276.512 36.374C276.661 36.457 276.829 36.5003 277 36.5H287C287.171 36.5 287.338 36.4564 287.487 36.3733C287.636 36.2902 287.761 36.1704 287.851 36.0253C287.94 35.8802 287.991 35.7146 287.999 35.5443C288.007 35.3739 287.97 35.2045 287.894 35.052L287.236 33.736C286.749 32.7641 286.002 31.9466 285.077 31.3752C284.152 30.8037 283.087 30.5007 282 30.5Z" fill="black"/>
</g>
</g>
<defs>
<filter id="filter0_i_879_4802" x="0" y="0" width="326" height="55" filterUnits="userSpaceOnUse" color-interpolation-filters="sRGB">
<feFlood flood-opacity="0" result="BackgroundImageFix"/>
<feBlend mode="normal" in="SourceGraphic" in2="BackgroundImageFix" result="shape"/>
<feColorMatrix in="SourceAlpha" type="matrix" values="0 0 0 0 0 0 0 0 0 0 0 0 0 0 0 0 0 0 127 0" result="hardAlpha"/>
<feOffset/>
<feGaussianBlur stdDeviation="7.5"/>
<feComposite in2="hardAlpha" operator="arithmetic" k2="-1" k3="1"/>
<feColorMatrix type="matrix" values="0 0 0 0 0 0 0 0 0 0 0 0 0 0 0 0 0 0 0.15 0"/>
<feBlend mode="normal" in2="shape" result="effect1_innerShadow_879_4802"/>
</filter>
<filter id="filter1_i_879_4802" x="272" y="16.5" width="30" height="24" filterUnits="userSpaceOnUse" color-interpolation-filters="sRGB">
<feFlood flood-opacity="0" result="BackgroundImageFix"/>
<feBlend mode="normal" in="SourceGraphic" in2="BackgroundImageFix" result="shape"/>
<feColorMatrix in="SourceAlpha" type="matrix" values="0 0 0 0 0 0 0 0 0 0 0 0 0 0 0 0 0 0 127 0" result="hardAlpha"/>
<feOffset dy="2"/>
<feGaussianBlur stdDeviation="2.5"/>
<feComposite in2="hardAlpha" operator="arithmetic" k2="-1" k3="1"/>
<feColorMatrix type="matrix" values="0 0 0 0 0.466177 0 0 0 0 0.466177 0 0 0 0 0.466177 0 0 0 1 0"/>
<feBlend mode="normal" in2="shape" result="effect1_innerShadow_879_4802"/>
</filter>
</defs>
</svg>
